<svg xmlns="http://www.w3.org/2000/svg" width="37" height="20" viewBox="0 0 37 20">
  <g id="Group_4" data-name="Group 4" transform="translate(-673 -2095)">
    <g id="Ellipse_2" data-name="Ellipse 2" transform="translate(673 2095)" stroke="#000" stroke-width="0.5">
      <circle cx="10" cy="10" r="10" stroke="none"/>
      <circle cx="10" cy="10" r="9.75" fill="none"/>
    </g>
    <g id="Polygon_4" data-name="Polygon 4" transform="translate(710 2099) rotate(90)" fill="none" stroke-linecap="square" stroke-dasharray="11">
      <path d="M5.5,0,11,9H0Z" stroke="none"/>
      <path d="M 5.5 0 L 5.79298734664917 0.4794340133666992 C 5.855940341949463 0.5824480056762695 5.927890777587891 0.7001857757568359 6.007568359375 0.83056640625 L 6.007568359375 0.83056640625 C 6.1123046875 1.001953125 6.23046875 1.1953125 6.359375 1.40625 L 6.359375 1.40625 C 6.48828125 1.6171875 6.6279296875 1.845703125 6.775634765625 2.08740234375 L 6.775634765625 2.08740234375 C 6.92333984375 2.3291015625 7.0791015625 2.583984375 7.240234375 2.84765625 L 7.240234375 2.84765625 C 7.4013671875 3.111328125 7.56787109375 3.3837890625 7.737060546875 3.66064453125 L 7.737060546875 3.66064453125 C 7.90625 3.9375 8.078125 4.21875 8.25 4.5 L 8.25 4.5 C 8.260574340820312 4.517303466796875 8.270980834960938 4.534332275390625 8.281554222106934 4.551634788513184 L 8.283232688903809 4.554380893707275 C 8.351373672485352 4.665884971618652 8.419407844543457 4.777213096618652 8.487327575683594 4.888354301452637 L 8.487503051757812 4.888641834259033 C 8.494194984436035 4.89959192276001 8.500635147094727 4.910129547119141 8.507322311401367 4.921072959899902 L 8.507588386535645 4.921507835388184 C 8.583660125732422 5.045989036560059 8.659603118896484 5.170260429382324 8.734910011291504 5.293488502502441 L 8.735370635986328 5.294243335723877 C 8.738018989562988 5.298576354980469 8.740453720092773 5.302560329437256 8.743100166320801 5.306891441345215 L 8.743100166320801 5.306891441345215 C 8.744423866271973 5.309057235717773 8.74560546875 5.310990333557129 8.746928215026855 5.313155174255371 L 8.747194290161133 5.313590526580811 C 8.752486228942871 5.322250366210938 8.757652282714844 5.330703735351562 8.762939453125 5.33935546875 L 8.762939453125 5.33935546875 C 8.810523986816406 5.417221069335938 8.857699394226074 5.494417667388916 8.904799461364746 5.571490287780762 L 8.905276298522949 5.572270393371582 C 8.989170074462891 5.709550380706787 9.07230281829834 5.84558629989624 9.154129981994629 5.979485511779785 L 9.180209159851074 6.02216100692749 C 9.190385818481445 6.038813591003418 9.200233459472656 6.054928302764893 9.210371017456055 6.071516513824463 L 9.214419364929199 6.078140735626221 C 9.215527534484863 6.079954147338867 9.21669864654541 6.081870555877686 9.217805862426758 6.083683013916016 L 9.218391418457031 6.084639549255371 C 9.232156753540039 6.107165813446045 9.246075630187988 6.129941940307617 9.259765625 6.15234375 L 9.259765625 6.15234375 C 9.278648376464844 6.183242797851562 9.297332763671875 6.21381664276123 9.316062927246094 6.244467258453369 L 9.31633186340332 6.244907379150391 C 9.317268371582031 6.246439933776855 9.318248748779297 6.248042583465576 9.319184303283691 6.249574661254883 L 9.320613861083984 6.251914024353027 C 9.322954177856445 6.255743026733398 9.325079917907715 6.25922155380249 9.327417373657227 6.263046264648438 L 9.327417373657227 6.263046264648438 C 9.32819652557373 6.264321327209473 9.329106330871582 6.265810012817383 9.329885482788086 6.267085075378418 L 9.336760520935059 6.278335571289062 C 9.338316917419434 6.280881881713867 9.340058326721191 6.283732414245605 9.34161376953125 6.286276817321777 L 9.346889495849609 6.294909954071045 C 9.356367111206055 6.310418128967285 9.366083145141602 6.326317310333252 9.375517845153809 6.341756820678711 L 9.376474380493164 6.343320846557617 C 9.384824752807617 6.356986045837402 9.392850875854492 6.370119094848633 9.401167869567871 6.383728981018066 L 9.402361869812012 6.385682106018066 C 9.410676956176758 6.399290084838867 9.419057846069336 6.413003921508789 9.427339553833008 6.426554679870605 L 9.427865028381348 6.427415370941162 C 9.430778503417969 6.432182312011719 9.433745384216309 6.437037467956543 9.436654090881348 6.441797733306885 L 9.444445610046387 6.454546928405762 C 9.456218719482422 6.473812103271484 9.468151092529297 6.493338584899902 9.479850769042969 6.512482643127441 L 9.482996940612793 6.517631530761719 C 9.487704277038574 6.525334358215332 9.492292404174805 6.532841682434082 9.496987342834473 6.540524482727051 L 9.503639221191406 6.55141019821167 C 9.505001068115234 6.553637981414795 9.506271362304688 6.555716514587402 9.507631301879883 6.557942390441895 L 9.509082794189453 6.560317039489746 C 9.54761791229248 6.623375415802002 9.585700035095215 6.685690879821777 9.623353004455566 6.747304916381836 L 9.626748085021973 6.752860069274902 C 9.627338409423828 6.753826141357422 9.62807559967041 6.755032539367676 9.628665924072266 6.755998134613037 L 9.630270004272461 6.758623123168945 C 9.661967277526855 6.810492515563965 9.693352699279785 6.861850261688232 9.724365234375 6.91259765625 L 9.727133750915527 6.91712760925293 C 9.728574752807617 6.919486522674561 9.72969913482666 6.92132568359375 9.731139183044434 6.92368221282959 L 9.731666564941406 6.924545764923096 C 9.733682632446289 6.927844047546387 9.735658645629883 6.93107795715332 9.7376708984375 6.934370994567871 L 9.738706588745117 6.936064720153809 C 9.746467590332031 6.948765754699707 9.754237174987793 6.961479187011719 9.761953353881836 6.974105834960938 L 9.762369155883789 6.974785804748535 C 9.785943031311035 7.013360977172852 9.809197425842285 7.051414489746094 9.832329750061035 7.089266777038574 L 9.833951950073242 7.091920852661133 C 9.836053848266602 7.09536075592041 9.838085174560547 7.098683834075928 9.840183258056641 7.102117538452148 L 9.84041690826416 7.102500438690186 C 9.909236907958984 7.215115070343018 9.975762367248535 7.323974609375 10.04023551940918 7.429476261138916 L 10.04092502593994 7.430604457855225 C 10.04446220397949 7.436393737792969 10.04769706726074 7.441686630249023 10.05122089385986 7.447452545166016 L 10.0552978515625 7.454123973846436 C 10.05568885803223 7.454763889312744 10.0561351776123 7.45549488067627 10.05652618408203 7.45613431930542 L 10.06060981750488 7.462815284729004 C 10.06060981750488 7.462815284729004 10.0608434677124 7.463198661804199 10.0608434677124 7.463198661804199 L 10.06629180908203 7.472114562988281 C 10.09146690368652 7.513309001922607 10.11620330810547 7.553787231445312 10.140625 7.59375 L 10.140625 7.59375 C 10.18481063842773 7.666053771972656 10.22773361206055 7.736291885375977 10.269287109375 7.804287910461426 L 10.26982021331787 7.805159568786621 C 10.27348899841309 7.811163902282715 10.27706623077393 7.817017555236816 10.28071403503418 7.822987079620361 L 10.28111934661865 7.823650360107422 C 10.28288459777832 7.8265380859375 10.28449821472168 7.829178333282471 10.28625774383545 7.832057952880859 L 10.2957820892334 7.84764289855957 C 10.30535125732422 7.863302230834961 10.31479835510254 7.878761291503906 10.32421493530273 7.894169330596924 L 10.32566833496094 7.896548271179199 C 10.3504524230957 7.937103271484375 10.37473106384277 7.976832389831543 10.39841365814209 8.015586853027344 L 10.4020824432373 8.021589279174805 C 10.40284824371338 8.022842407226562 10.40340518951416 8.023754119873047 10.40417003631592 8.025004386901855 L 10.40542030334473 8.027050971984863 C 10.40596580505371 8.02794361114502 10.40674018859863 8.029211044311523 10.4072847366333 8.030102729797363 L 10.40761089324951 8.030635833740234 C 10.4089183807373 8.032774925231934 10.4100341796875 8.034601211547852 10.41133880615234 8.036735534667969 L 10.41322803497314 8.039827346801758 C 10.4403600692749 8.084225654602051 10.46686172485352 8.127591133117676 10.492431640625 8.16943359375 L 10.492431640625 8.16943359375 C 10.49304580688477 8.170437812805176 10.4936580657959 8.171441078186035 10.49427127838135 8.172443389892578 L 10.49533462524414 8.174184799194336 C 10.49717140197754 8.177190780639648 10.4990119934082 8.180201530456543 10.50084018707275 8.183194160461426 L 10.50226020812988 8.185516357421875 C 10.50865173339844 8.195975303649902 10.51504325866699 8.206435203552246 10.52133274078369 8.216726303100586 L 10.52171611785889 8.217354774475098 C 10.52221584320068 8.218171119689941 10.52292346954346 8.219328880310059 10.52342128753662 8.220144271850586 L 10.52437973022461 8.221713066101074 C 10.52487754821777 8.222527503967285 10.52548408508301 8.223519325256348 10.52598094940186 8.224332809448242 L 10.52664375305176 8.225417137145996 C 10.53995704650879 8.24720287322998 10.55309867858887 8.268707275390625 10.56593608856201 8.289713859558105 L 10.56622409820557 8.290184020996094 C 10.57570552825928 8.305700302124023 10.58489036560059 8.32072925567627 10.59410667419434 8.335810661315918 L 10.59538555145264 8.33790397644043 C 10.59836101531982 8.3427734375 10.60134792327881 8.347661018371582 10.60429573059082 8.352483749389648 L 10.60518932342529 8.353946685791016 C 10.63656044006348 8.405280113220215 10.6663761138916 8.454070091247559 10.69444465637207 8.5 L 10.69444465637207 8.5 L 11 9 C 11 9 11 9 11 9 C 11 9 11 9 11 9 L 11 9 C 11 9 11 9 11 9 L 10.29751014709473 9 L 10.29751014709473 8.80933952331543 L 5.499999523162842 0.9588680267333984 L 0.5859737396240234 9 L 0.3883152008056641 9 L 0.1055898666381836 8.82721996307373 L 0.2359504699707031 8.613900184631348 C 0.2359504699707031 8.613900184631348 0.236018180847168 8.613787651062012 0.2361545562744141 8.613565444946289 L 0.2361669540405273 8.613545417785645 C 0.2361783981323242 8.613525390625 0.2361955642700195 8.613497734069824 0.2362089157104492 8.613476753234863 L 0.2362632751464844 8.613388061523438 C 0.238856315612793 8.60914421081543 0.2575550079345703 8.578546524047852 0.2905330657958984 8.524581909179688 L 0.2907075881958008 8.524296760559082 C 0.2909250259399414 8.523940086364746 0.291224479675293 8.52345085144043 0.2914438247680664 8.523092269897461 L 0.2933712005615234 8.519937515258789 C 0.2994241714477539 8.510032653808594 0.3059482574462891 8.499357223510742 0.3129053115844727 8.487974166870117 L 0.3129053115844727 8.487974166870117 C 0.3152952194213867 8.484063148498535 0.3177042007446289 8.480120658874512 0.3201990127563477 8.476037979125977 L 0.3202619552612305 8.475934982299805 C 0.3211088180541992 8.474549293518066 0.3219509124755859 8.473171234130859 0.3228092193603516 8.471766471862793 L 0.3231296539306641 8.471242904663086 C 0.3243513107299805 8.469244003295898 0.3254728317260742 8.467408180236816 0.3267183303833008 8.46536922454834 L 0.3268861770629883 8.465095520019531 C 0.3283176422119141 8.462752342224121 0.3297805786132812 8.460358619689941 0.3312435150146484 8.457964897155762 L 0.3318109512329102 8.457036018371582 C 0.3651361465454102 8.402504920959473 0.4066228866577148 8.334616661071777 0.4554376602172852 8.254737854003906 L 0.4554376602172852 8.254737854003906 C 0.4559926986694336 8.253829956054688 0.4564752578735352 8.253040313720703 0.4570322036743164 8.252128601074219 L 0.4571609497070312 8.251918792724609 C 0.4588298797607422 8.249186515808105 0.4604530334472656 8.24653148651123 0.4621400833129883 8.243771553039551 L 0.4621400833129883 8.243771553039551 C 0.4804134368896484 8.213869094848633 0.4996805191040039 8.182340621948242 0.5199012756347656 8.149252891540527 L 0.5199012756347656 8.149252891540527 C 0.5322656631469727 8.129018783569336 0.5450820922851562 8.108047485351562 0.5581502914428711 8.086663246154785 L 0.5585212707519531 8.086055755615234 C 0.5607414245605469 8.082422256469727 0.5629043579101562 8.078883171081543 0.5651454925537109 8.075217247009277 L 0.5653505325317383 8.074880599975586 C 0.624598503112793 7.977929592132568 0.6906461715698242 7.869851112365723 0.7629251480102539 7.75157642364502 L 0.7643842697143555 7.749190330505371 C 0.7827281951904297 7.71917200088501 0.8014230728149414 7.68858003616333 0.8205337524414062 7.657307624816895 L 0.8207902908325195 7.656888961791992 C 0.8946990966796875 7.535946846008301 0.9741182327270508 7.405987739562988 1.058457374572754 7.267978191375732 L 1.059904098510742 7.26561164855957 C 1.06135082244873 7.263244152069092 1.062671661376953 7.261083602905273 1.064121246337891 7.258711338043213 L 1.065810203552246 7.255946636199951 C 1.082733154296875 7.228255271911621 1.099735260009766 7.200433254241943 1.117033958435059 7.172126770019531 L 1.117033958435059 7.172126770019531 C 1.119504928588867 7.168083190917969 1.121979713439941 7.164032936096191 1.124458312988281 7.159976959228516 L 1.124458312988281 7.159976959228516 C 1.125326156616211 7.158556938171387 1.126317977905273 7.156933784484863 1.12718677520752 7.15551233291626 L 1.127931594848633 7.154294013977051 C 1.134757041931152 7.143124580383301 1.141487121582031 7.1321120262146 1.148368835449219 7.120850563049316 L 1.148368835449219 7.120850563049316 C 1.149370193481445 7.119212627410889 1.150371551513672 7.117573738098145 1.151373863220215 7.115933418273926 L 1.151373863220215 7.115933418273926 C 1.155132293701172 7.109784126281738 1.158982276916504 7.103483200073242 1.16275691986084 7.097306251525879 L 1.170486450195312 7.084658622741699 C 1.19269847869873 7.048311233520508 1.21537971496582 7.011197090148926 1.238141059875488 6.973950386047363 L 1.239502906799316 6.97172212600708 C 1.246232032775879 6.960711479187012 1.2532958984375 6.94915246963501 1.26007080078125 6.938066005706787 L 1.260502815246582 6.937358856201172 C 1.453252792358398 6.621949195861816 1.664716720581055 6.275917530059814 1.886995315551758 5.912189483642578 L 1.887310981750488 5.911673545837402 C 1.892120361328125 5.903803825378418 1.896708488464355 5.896294593811035 1.901528358459473 5.888408184051514 L 1.901528358459473 5.888408184051514 C 1.903034210205078 5.885943412780762 1.904722213745117 5.883182525634766 1.906229019165039 5.880716323852539 L 1.907333374023438 5.878909111022949 C 1.908237457275391 5.877429485321045 1.909364700317383 5.875585556030273 1.910268783569336 5.874105453491211 L 1.914697647094727 5.86685848236084 C 1.938386917114258 5.828093528747559 1.962141036987305 5.789222717285156 1.98606014251709 5.750083923339844 L 1.989259719848633 5.744847774505615 C 1.991545677185059 5.741106986999512 1.993629455566406 5.737696647644043 1.995917320251465 5.733952522277832 L 1.996487617492676 5.733020782470703 C 1.998470306396484 5.729775428771973 2.000444412231445 5.726546287536621 2.002429008483887 5.7232985496521 L 2.003786087036133 5.721077919006348 C 2.134336471557617 5.507449626922607 2.268196105957031 5.288407325744629 2.403630256652832 5.066786766052246 L 2.403630256652832 5.066786766052246 C 2.434677124023438 5.015982627868652 2.465813636779785 4.965033054351807 2.49701976776123 4.913967132568359 L 2.49701976776123 4.913967132568359 C 2.539213180541992 4.844923496246338 2.581696510314941 4.775405883789062 2.624104499816895 4.706010818481445 L 2.626344680786133 4.702344417572021 C 2.706686019897461 4.570876598358154 2.787330627441406 4.438913345336914 2.867975234985352 4.306950092315674 L 2.867975234985352 4.306950092315674 C 3.196978092193604 3.768581390380859 3.525981426239014 3.230212688446045 3.834421634674072 2.725492000579834 L 3.834421634674072 2.725492000579834 C 4.142862319946289 2.220771312713623 4.430739879608154 1.749698638916016 4.677492141723633 1.345921993255615 L 4.677492141723633 1.345921993255615 C 4.888339996337891 1.000897884368896 5.069049835205078 0.7051916122436523 5.20701265335083 0.4794340133666992 L 5.5 0 Z" stroke="none" fill="#000"/>
    </g>
  </g>
</svg>
